<svg width="72" height="23" viewBox="0 0 72 23" fill="none" xmlns="http://www.w3.org/2000/svg">
<path d="M8.33887 8.35205C8.3138 8.89632 8.16699 9.37793 7.89844 9.79688C7.62988 10.2122 7.25212 10.5345 6.76514 10.7637C6.28174 10.9928 5.72852 11.1074 5.10547 11.1074C4.0778 11.1074 3.26855 10.7726 2.67773 10.103C2.08691 9.43343 1.7915 8.48812 1.7915 7.26709V6.88037C1.7915 6.1141 1.92399 5.4445 2.18896 4.87158C2.45752 4.29508 2.84245 3.85107 3.34375 3.53955C3.84505 3.22445 4.42513 3.06689 5.08398 3.06689C6.03288 3.06689 6.79557 3.31755 7.37207 3.81885C7.94857 4.31657 8.2762 5.00407 8.35498 5.88135H6.4751C6.46077 5.40511 6.34082 5.06315 6.11523 4.85547C5.88965 4.64779 5.5459 4.54395 5.08398 4.54395C4.61491 4.54395 4.27116 4.7194 4.05273 5.07031C3.83431 5.42122 3.71973 5.98161 3.70898 6.75146V7.30469C3.70898 8.139 3.81283 8.73519 4.02051 9.09326C4.23177 9.45133 4.59342 9.63037 5.10547 9.63037C5.53874 9.63037 5.86995 9.52832 6.09912 9.32422C6.32829 9.12012 6.45003 8.79606 6.46436 8.35205H8.33887ZM15.853 7.25098C15.853 8.01367 15.7116 8.68864 15.4287 9.27588C15.1458 9.86312 14.743 10.3161 14.2202 10.6348C13.701 10.9499 13.1084 11.1074 12.4424 11.1074C11.7764 11.1074 11.1855 10.9552 10.6699 10.6509C10.1543 10.3429 9.75146 9.9043 9.46143 9.33496C9.17497 8.76562 9.02458 8.11214 9.01025 7.37451V6.93408C9.01025 6.16781 9.1499 5.49284 9.4292 4.90918C9.71208 4.32194 10.1149 3.86898 10.6377 3.55029C11.1641 3.23161 11.762 3.07227 12.4316 3.07227C13.0941 3.07227 13.6849 3.22982 14.2041 3.54492C14.7233 3.86003 15.1261 4.30941 15.4126 4.89307C15.7026 5.47314 15.8494 6.13916 15.853 6.89111V7.25098ZM13.9355 6.92334C13.9355 6.14632 13.8049 5.55729 13.5435 5.15625C13.2856 4.75163 12.915 4.54932 12.4316 4.54932C11.4863 4.54932 10.9868 5.2583 10.9331 6.67627L10.9277 7.25098C10.9277 8.01725 11.0549 8.60628 11.3091 9.01807C11.5633 9.42985 11.9411 9.63574 12.4424 9.63574C12.9186 9.63574 13.2856 9.43343 13.5435 9.02881C13.8013 8.62419 13.932 8.04232 13.9355 7.2832V6.92334ZM18.7104 8.34668V11H16.8252V3.17969H19.9458C20.5438 3.17969 21.0719 3.29069 21.5303 3.5127C21.9922 3.73112 22.3485 4.04443 22.5991 4.45264C22.8534 4.85726 22.9805 5.31738 22.9805 5.83301C22.9805 6.5957 22.7065 7.20622 22.1587 7.66455C21.6144 8.1193 20.866 8.34668 19.9136 8.34668H18.7104ZM18.7104 6.89111H19.9458C20.311 6.89111 20.5885 6.7998 20.7783 6.61719C20.9717 6.43457 21.0684 6.17676 21.0684 5.84375C21.0684 5.47852 20.9699 5.18669 20.7729 4.96826C20.576 4.74984 20.3075 4.63883 19.9673 4.63525H18.7104V6.89111ZM25.999 11H24.1191V3.17969H25.999V11ZM31.8481 9.53906H29.2646L28.8135 11H26.7993L29.6675 3.17969H31.4399L34.3296 11H32.3047L31.8481 9.53906ZM29.7158 8.0835H31.397L30.5537 5.37109L29.7158 8.0835ZM34.9043 11V3.17969H37.4233C38.1144 3.17969 38.7357 3.33724 39.2871 3.65234C39.8385 3.96387 40.2682 4.40609 40.5762 4.979C40.8877 5.54834 41.0452 6.1875 41.0488 6.89648V7.25635C41.0488 7.97249 40.8966 8.61523 40.5923 9.18457C40.2915 9.75033 39.8654 10.1943 39.314 10.5166C38.7661 10.8353 38.1538 10.9964 37.4771 11H34.9043ZM36.7896 4.63525V9.5498H37.4448C37.9855 9.5498 38.4009 9.35824 38.6909 8.9751C38.981 8.58838 39.126 8.01546 39.126 7.25635V6.91797C39.126 6.16243 38.981 5.5931 38.6909 5.20996C38.4009 4.82682 37.9784 4.63525 37.4233 4.63525H36.7896ZM48.6382 7.25098C48.6382 8.01367 48.4967 8.68864 48.2139 9.27588C47.931 9.86312 47.5282 10.3161 47.0054 10.6348C46.4862 10.9499 45.8936 11.1074 45.2275 11.1074C44.5615 11.1074 43.9707 10.9552 43.4551 10.6509C42.9395 10.3429 42.5366 9.9043 42.2466 9.33496C41.9601 8.76562 41.8097 8.11214 41.7954 7.37451V6.93408C41.7954 6.16781 41.9351 5.49284 42.2144 4.90918C42.4972 4.32194 42.9001 3.86898 43.4229 3.55029C43.9492 3.23161 44.5472 3.07227 45.2168 3.07227C45.8792 3.07227 46.4701 3.22982 46.9893 3.54492C47.5085 3.86003 47.9113 4.30941 48.1978 4.89307C48.4878 5.47314 48.6346 6.13916 48.6382 6.89111V7.25098ZM46.7207 6.92334C46.7207 6.14632 46.59 5.55729 46.3286 5.15625C46.0708 4.75163 45.7002 4.54932 45.2168 4.54932C44.2715 4.54932 43.772 5.2583 43.7183 6.67627L43.7129 7.25098C43.7129 8.01725 43.84 8.60628 44.0942 9.01807C44.3485 9.42985 44.7262 9.63574 45.2275 9.63574C45.7038 9.63574 46.0708 9.43343 46.3286 9.02881C46.5864 8.62419 46.7171 8.04232 46.7207 7.2832V6.92334ZM52.5161 8.23926H51.4956V11H49.6104V3.17969H52.688C53.6154 3.17969 54.3405 3.38558 54.8633 3.79736C55.3861 4.20915 55.6475 4.79102 55.6475 5.54297C55.6475 6.08724 55.5365 6.53841 55.3145 6.89648C55.096 7.25456 54.7523 7.5446 54.2832 7.7666L55.916 10.9194V11H53.8965L52.5161 8.23926ZM51.4956 6.78369H52.688C53.0461 6.78369 53.3146 6.69059 53.4937 6.50439C53.6763 6.31462 53.7676 6.05143 53.7676 5.71484C53.7676 5.37826 53.6763 5.11507 53.4937 4.92529C53.311 4.73193 53.0425 4.63525 52.688 4.63525H51.4956V6.78369ZM61.228 9.53906H58.6445L58.1934 11H56.1792L59.0474 3.17969H60.8198L63.7095 11H61.6846L61.228 9.53906ZM59.0957 8.0835H60.7769L59.9336 5.37109L59.0957 8.0835ZM68.3179 8.92139C68.3179 8.64567 68.2194 8.43083 68.0225 8.27686C67.8291 8.12288 67.4871 7.96354 66.9966 7.79883C66.506 7.63411 66.105 7.47477 65.7935 7.3208C64.7801 6.82308 64.2734 6.13916 64.2734 5.26904C64.2734 4.83577 64.3988 4.45443 64.6494 4.125C64.9036 3.79199 65.2617 3.53418 65.7236 3.35156C66.1855 3.16536 66.7048 3.07227 67.2812 3.07227C67.8434 3.07227 68.3465 3.17253 68.7905 3.37305C69.2381 3.57357 69.5854 3.86003 69.8325 4.23242C70.0796 4.60124 70.2031 5.02376 70.2031 5.5H68.3232C68.3232 5.18132 68.2248 4.93424 68.0278 4.75879C67.8345 4.58333 67.5713 4.49561 67.2383 4.49561C66.9017 4.49561 66.6349 4.5708 66.438 4.72119C66.2446 4.868 66.1479 5.05599 66.1479 5.28516C66.1479 5.48568 66.2554 5.66829 66.4702 5.83301C66.6851 5.99414 67.0628 6.16243 67.6035 6.33789C68.1442 6.50977 68.5882 6.69596 68.9355 6.89648C69.7806 7.38346 70.2031 8.05485 70.2031 8.91064C70.2031 9.59456 69.9453 10.1317 69.4297 10.522C68.9141 10.9123 68.2069 11.1074 67.3081 11.1074C66.6743 11.1074 66.0996 10.9946 65.584 10.769C65.0719 10.5399 64.6852 10.2284 64.4238 9.83447C64.166 9.43701 64.0371 8.98047 64.0371 8.46484H65.9277C65.9277 8.88379 66.0352 9.19352 66.25 9.39404C66.4684 9.59098 66.8211 9.68945 67.3081 9.68945C67.6196 9.68945 67.8649 9.62321 68.0439 9.49072C68.2266 9.35465 68.3179 9.16488 68.3179 8.92139Z" fill="#FE0606"/>
<line x1="3" y1="16.85" x2="36" y2="16.85" stroke="#FF0000" stroke-width="0.3"/>
<circle cx="38" cy="17" r="2.85" fill="white" stroke="#FF0000" stroke-width="0.3"/>
<path d="M46.2266 17.4951L45.7871 20H44.3564L45.5918 12.8906L48.082 12.8955C48.8503 12.8955 49.4541 13.1087 49.8936 13.5352C50.333 13.9616 50.5251 14.5182 50.4697 15.2051C50.4176 15.9017 50.1263 16.4583 49.5957 16.875C49.0684 17.2917 48.3945 17.5 47.5742 17.5L46.2266 17.4951ZM46.4268 16.3086L47.6182 16.3184C48.0023 16.3184 48.3213 16.2191 48.5752 16.0205C48.8291 15.8219 48.9805 15.5534 49.0293 15.2148C49.0781 14.8763 49.0228 14.6061 48.8633 14.4043C48.707 14.2025 48.4743 14.0951 48.165 14.082L46.8174 14.0771L46.4268 16.3086ZM55.3574 16.9189H52.6328L52.3008 18.8232H55.5039L55.2988 20H50.665L51.9004 12.8906H56.5244L56.3145 14.0771H53.126L52.8281 15.7715H55.5625L55.3574 16.9189ZM59.2197 17.3975H58.0576L57.6035 20H56.1729L57.4082 12.8906L59.7617 12.8955C60.5495 12.8955 61.1549 13.0811 61.5781 13.4521C62.0046 13.8232 62.1934 14.3392 62.1445 15C62.0762 15.9766 61.5553 16.6553 60.582 17.0361L61.583 19.9219V20H60.0596L59.2197 17.3975ZM58.2627 16.2109L59.3271 16.2207C59.7048 16.2142 60.0156 16.1133 60.2598 15.918C60.5072 15.7194 60.6553 15.4508 60.7041 15.1123C60.7497 14.7965 60.6992 14.5492 60.5527 14.3701C60.4062 14.1911 60.1735 14.0951 59.8545 14.082L58.6338 14.0771L58.2627 16.2109ZM68.8975 12.8906L68.0967 17.5781C67.986 18.3626 67.6605 18.9827 67.1201 19.4385C66.5798 19.8942 65.9092 20.1156 65.1084 20.1025C64.6071 20.0928 64.1709 19.9837 63.7998 19.7754C63.432 19.5638 63.1602 19.2676 62.9844 18.8867C62.8086 18.5026 62.7484 18.068 62.8037 17.583L63.5996 12.8906H65.0303L64.2344 17.5879C64.2116 17.7702 64.21 17.9411 64.2295 18.1006C64.2946 18.6279 64.6087 18.9014 65.1719 18.9209C65.5755 18.9339 65.9059 18.8232 66.1631 18.5889C66.4202 18.3545 66.5863 18.0192 66.6611 17.583L67.4619 12.8906H68.8975Z" fill="black"/>
</svg>
